M48
; DRILL file {KiCad 6.0.2+dfsg-1} date Wed 02 Mar 2022 06:06:05 PM EST
; FORMAT={-:-/ absolute / inch / decimal}
; #@! TF.CreationDate,2022-03-02T18:06:05-05:00
; #@! TF.GenerationSoftware,Kicad,Pcbnew,6.0.2+dfsg-1
; #@! TF.FileFunction,Plated,1,2,PTH
FMAT,2
INCH
; #@! TA.AperFunction,Plated,PTH,ComponentDrill
T1C0.0236
; #@! TA.AperFunction,Plated,PTH,ComponentDrill
T2C0.0315
; #@! TA.AperFunction,Plated,PTH,ComponentDrill
T3C0.0354
; #@! TA.AperFunction,Plated,PTH,ComponentDrill
T4C0.0433
; #@! TA.AperFunction,Plated,PTH,ComponentDrill
T5C0.0591
%
G90
G05
T1
X1.5Y-1.2583
X1.5Y-1.4
T2
X1.6Y-2.2445
X1.6Y-3.1445
X1.7Y-1.0
X1.7Y-1.0984
X2.0Y-2.2445
X2.0Y-3.1445
X2.3Y-1.25
X2.3Y-1.55
X2.3Y-2.1
X2.3Y-2.5
X2.4Y-2.1
X2.4Y-2.5
X2.5Y-1.1016
X2.5Y-1.2
X2.5494Y-1.6443
X2.5494Y-1.7443
X2.5494Y-1.8443
X2.5494Y-1.9443
X2.5494Y-2.0443
X2.5494Y-2.1443
X2.5494Y-2.2443
X2.7Y-0.8
X2.8494Y-1.6443
X2.8494Y-1.7443
X2.8494Y-1.8443
X2.8494Y-1.9443
X2.8494Y-2.0443
X2.8494Y-2.1443
X2.8494Y-2.2443
X3.0Y-2.1
X3.0Y-2.5
X3.0504Y-0.9496
X3.0504Y-1.2496
X3.1Y-0.8
X3.1Y-2.1
X3.1Y-2.5
X3.1504Y-0.9496
X3.1504Y-1.2496
X3.2Y-0.8
X3.2Y-1.4
X3.2Y-1.4984
X3.2Y-2.25
X3.2Y-2.65
X3.2504Y-0.9496
X3.2504Y-1.2496
X3.3443Y-1.6443
X3.3443Y-1.7443
X3.3443Y-1.8443
X3.3443Y-1.9443
X3.3443Y-2.0443
X3.3443Y-2.1443
X3.3443Y-2.2443
X3.3504Y-0.9496
X3.3504Y-1.2496
X3.6Y-0.8
X3.6Y-1.3031
X3.6Y-1.5
X3.6443Y-1.6443
X3.6443Y-1.7443
X3.6443Y-1.8443
X3.6443Y-1.9443
X3.6443Y-2.0443
X3.6443Y-2.1443
X3.6443Y-2.2443
T3
X2.7Y-2.8
X2.7Y-2.9
X3.0Y-2.8
X3.0Y-2.9
X3.3Y-2.8
X3.3Y-2.9
X3.6Y-2.8
X3.6Y-2.9
T4
X2.1Y-1.0
X2.1Y-1.1
X2.1Y-1.2
T5
X1.65Y-1.7445
X1.65Y-2.6445
X1.9Y-1.6445
X1.9Y-2.5445
T0
M30
